HIERARCHY
ROOT Hips
{
	OFFSET 0.000000 0.000000 0.000000
	CHANNELS 6 Xposition Yposition Zposition Zrotation Yrotation Xrotation 
	JOINT LHipJoint
	{
		OFFSET 0.000000 0.000000 0.000000
		CHANNELS 3 Zrotation Yrotation Xrotation
		JOINT LeftUpLeg
		{
			OFFSET 1.363060 -1.794630 0.839290
			CHANNELS 3 Zrotation Yrotation Xrotation
			JOINT LeftLeg
			{
				OFFSET 2.448110 -6.726130 0.000000
				CHANNELS 3 Zrotation Yrotation Xrotation
				JOINT LeftFoot
				{
					OFFSET 2.562200 -7.039590 0.000000
					CHANNELS 3 Zrotation Yrotation Xrotation
					JOINT LeftToeBase
					{
						OFFSET 0.157640 -0.433110 2.322550
						CHANNELS 3 Zrotation Yrotation Xrotation
						End Site
						{
							OFFSET 0.000000 0.000000 0.000000
						}
					}
				}
			}
		}
	}
	JOINT RHipJoint
	{
		OFFSET 0.000000 0.000000 0.000000
		CHANNELS 3 Zrotation Yrotation Xrotation
		JOINT RightUpLeg
		{
			OFFSET -1.305520 -1.794630 0.839290
			CHANNELS 3 Zrotation Yrotation Xrotation
			JOINT RightLeg
			{
				OFFSET -2.542530 -6.985550 0.000000
				CHANNELS 3 Zrotation Yrotation Xrotation
				JOINT RightFoot
				{
					OFFSET -2.568260 -7.056230 0.000000
					CHANNELS 3 Zrotation Yrotation Xrotation
					JOINT RightToeBase
					{
						OFFSET -0.164730 -0.452590 2.363150
						CHANNELS 3 Zrotation Yrotation Xrotation
						End Site
						{
							OFFSET 0.000000 0.000000 0.000000
						}
					}
				}
			}
		}
	}
	JOINT LowerBack
	{
		OFFSET 0.000000 0.000000 0.000000
		CHANNELS 3 Zrotation Yrotation Xrotation
		JOINT Spine
		{
			OFFSET 0.028270 2.035590 -0.193380
			CHANNELS 3 Zrotation Yrotation Xrotation
			JOINT Spine1
			{
				OFFSET 0.056720 2.048850 -0.042750
				CHANNELS 3 Zrotation Yrotation Xrotation
				JOINT Neck
				{
					OFFSET 0.000000 0.000000 0.000000
					CHANNELS 3 Zrotation Yrotation Xrotation
					JOINT Neck1
					{
						OFFSET -0.054170 1.746240 0.172020
						CHANNELS 3 Zrotation Yrotation Xrotation
						JOINT Head
						{
							OFFSET 0.104070 1.761360 -0.123970
							CHANNELS 3 Zrotation Yrotation Xrotation
							End Site
							{
								OFFSET 0.000000 0.000000 0.000000
							}
						}
					}
				}
				JOINT LeftShoulder
				{
					OFFSET 0.000000 0.000000 0.000000
					CHANNELS 3 Zrotation Yrotation Xrotation
					JOINT LeftArm
					{
						OFFSET 3.362410 1.200890 -0.311210
						CHANNELS 3 Zrotation Yrotation Xrotation
						JOINT LeftForeArm
						{
							OFFSET 4.983000 -0.000000 -0.000000
							CHANNELS 3 Zrotation Yrotation Xrotation
							JOINT LeftHand
							{
								OFFSET 3.483560 -0.000000 -0.000000
								CHANNELS 3 Zrotation Yrotation Xrotation
								JOINT LeftFingerBase
								{
									OFFSET 0.000000 0.000000 0.000000
									CHANNELS 3 Zrotation Yrotation Xrotation
									JOINT LeftHandIndex1
									{
										OFFSET 0.715260 -0.000000 -0.000000
										CHANNELS 3 Zrotation Yrotation Xrotation
										End Site
										{
											OFFSET 0.000000 0.000000 0.000000
										}
									}
								}
								JOINT LThumb
								{
									OFFSET 0.000000 0.000000 0.000000
									CHANNELS 3 Zrotation Yrotation Xrotation
									End Site
									{
										OFFSET 0.000000 0.000000 0.000000
									}
								}
							}
						}
					}
				}
				JOINT RightShoulder
				{
					OFFSET 0.000000 0.000000 0.000000
					CHANNELS 3 Zrotation Yrotation Xrotation
					JOINT RightArm
					{
						OFFSET -3.136600 1.374050 -0.404650
						CHANNELS 3 Zrotation Yrotation Xrotation
						JOINT RightForeArm
						{
							OFFSET -5.241900 -0.000000 -0.000000
							CHANNELS 3 Zrotation Yrotation Xrotation
							JOINT RightHand
							{
								OFFSET -3.444170 -0.000000 -0.000000
								CHANNELS 3 Zrotation Yrotation Xrotation
								JOINT RightFingerBase
								{
									OFFSET 0.000000 0.000000 0.000000
									CHANNELS 3 Zrotation Yrotation Xrotation
									JOINT RightHandIndex1
									{
										OFFSET -0.622530 -0.000000 -0.000000
										CHANNELS 3 Zrotation Yrotation Xrotation
										End Site
										{
											OFFSET 0.000000 0.000000 0.000000
										}
									}
								}
								JOINT RThumb
								{
									OFFSET 0.000000 0.000000 0.000000
									CHANNELS 3 Zrotation Yrotation Xrotation
									End Site
									{
										OFFSET 0.000000 0.000000 0.000000
									}
								}
							}
						}
					}
				}
			}
		}
	}
}
MOTION
Frames: 7
Frame Time: 0.008333
0.023497 16.821666 -0.283116 44.332035 81.116106 62.192041 -11.971940 3.435267 -1.853950 -1.769461 8.964192 -7.581467 -0.863877 1.933754 30.234993 0.771393 -1.362804 18.510798 -0.926501 0.000000 -82.413800 8.888679 1.255441 0.496400 7.713684 -2.967772 -45.543900 1.873162 -1.038783 21.512137 -1.940142 -8.602272 0.123177 -2.281000 -0.000001 -17.040700 5.511340 -2.717702 2.909317 0.263038 -2.987937 -2.048463 -6.756888 -3.002152 1.545014 8.432346 -4.962623 -5.607553 -3.972541 -0.303119 0.378177 0.000000 0.000000 0.000000 -3.285079 5.576030 3.214098 -33.858865 -19.362596 -2.164919 -2.334925 -57.668591 0.025600 -6.338421 0.263100 -0.001499 -0.082714 0.213707 0.000000 0.000000 0.000000 0.000000 0.000000 0.000000 0.000000 16.697583 -4.480449 1.309579 67.123654 -5.006043 -15.045105 4.153045 15.328997 0.013632 7.980725 5.606970 0.392680 0.058009 -0.053634 -0.000000 0.000000 0.000000 0.000000 0.000000 0.000000 0.000000 
0.181826 16.833312 -0.203044 42.856091 81.118679 60.647123 -12.074101 3.368677 -1.843845 -1.214698 9.070731 -8.573627 -0.703905 2.038492 32.527137 0.899389 -1.596150 20.308631 -1.155601 -0.000000 -79.831699 8.807961 1.176584 0.419789 8.144239 -2.778882 -45.195723 1.877782 -1.110421 22.632758 -1.989803 -8.573652 -1.125970 -2.050900 -0.000000 -16.122200 5.820796 -2.629373 2.945803 0.334875 -2.911011 -2.063241 -6.693713 -2.929790 1.496155 8.487383 -4.648029 -5.459179 -3.962906 -0.303635 0.418372 0.000000 0.000000 0.000000 -3.260847 5.611441 3.159553 -35.259449 -18.665758 -1.691531 -2.395913 -57.161392 0.024373 -6.185408 0.226022 0.000225 -0.088209 0.206826 0.000000 0.000000 0.000000 0.000000 0.000000 0.000000 0.000000 16.608825 -4.140674 1.288562 67.172466 -4.496183 -15.006432 4.142566 15.262737 0.013611 7.884637 5.651933 0.391081 0.057326 -0.054278 -0.000000 0.000000 0.000000 0.000000 0.000000 0.000000 0.000000 
0.337356 16.845236 -0.120838 41.429651 81.083599 59.169145 -12.144552 3.284296 -1.831985 -0.756870 9.107900 -9.633857 -0.558062 2.134029 34.875462 1.034237 -1.594048 21.892949 -1.279900 -0.000000 -76.480100 8.743295 1.104688 0.361901 8.530433 -2.568246 -44.799777 1.882403 -1.162788 23.626395 -2.051933 -8.569253 -2.465152 -1.808000 -0.000000 -15.247100 6.049078 -2.546806 2.964291 0.388708 -2.837367 -2.079341 -6.636352 -2.860368 1.452401 8.582655 -4.344881 -5.313758 -3.950136 -0.303955 0.458068 0.000000 0.000000 0.000000 -3.198828 5.639894 3.107173 -36.606691 -17.932771 -1.156741 -2.456875 -56.618236 0.023181 -6.077019 0.225059 -0.000156 -0.093019 0.199064 0.000000 0.000000 0.000000 0.000000 0.000000 0.000000 0.000000 16.551640 -3.811461 1.265675 67.220655 -3.911504 -14.904568 4.129907 15.233274 0.013590 7.806760 5.694449 0.390083 0.056453 -0.054969 -0.000000 0.000000 0.000000 0.000000 0.000000 0.000000 0.000000 
0.489986 16.857705 -0.037046 40.070783 81.008842 57.773940 -12.187468 3.185138 -1.820112 -0.397529 9.083711 -10.755353 -0.425895 2.224093 37.260049 1.170665 -1.325374 23.214193 -1.263500 -0.000001 -72.576000 8.694101 1.037859 0.319273 8.875847 -2.351765 -44.360407 1.888730 -1.198341 24.478589 -2.117407 -8.565825 -3.810067 -1.560900 -0.000000 -14.422300 6.200902 -2.470901 2.969070 0.425435 -2.767935 -2.096176 -6.585623 -2.794850 1.412764 8.711261 -4.059057 -5.175943 -3.935208 -0.304097 0.495886 0.000000 0.000000 0.000000 -3.112286 5.658247 3.059143 -37.884949 -17.158530 -0.561243 -2.517511 -56.049236 0.022000 -6.007965 0.257274 -0.002143 -0.097258 0.190483 0.000000 0.000000 0.000000 0.000000 0.000000 0.000000 0.000000 16.524807 -3.497946 1.242825 67.262954 -3.245509 -14.729196 4.114758 15.247654 0.013584 7.745091 5.738134 0.390085 0.055389 -0.055791 -0.000000 0.000000 0.000000 0.000000 0.000000 0.000000 0.000000 
0.639761 16.871122 0.047633 38.751412 80.897005 56.429927 -12.209376 3.073698 -1.810042 -0.125103 9.010856 -11.928144 -0.305442 2.312115 39.653423 1.305805 -0.780601 24.249827 -1.087100 -0.000000 -68.439000 8.657316 0.973151 0.287654 9.192206 -2.139295 -43.874056 1.898619 -1.218310 25.171554 -2.178235 -8.547101 -5.085456 -1.320800 -0.000001 -13.658699 6.291658 -2.401207 2.965772 0.448030 -2.702679 -2.112953 -6.542626 -2.733218 1.376284 8.863039 -3.784571 -5.048714 -3.919108 -0.304079 0.530824 0.000000 0.000000 0.000000 -3.026891 5.678648 3.018792 -39.069697 -16.361807 0.106226 -2.578819 -55.454373 0.020796 -5.967302 0.317581 -0.005734 -0.101181 0.181196 0.000000 0.000000 0.000000 0.000000 0.000000 0.000000 0.000000 16.522234 -3.192041 1.220625 67.298878 -2.506361 -14.496176 4.097072 15.321148 0.013598 7.705386 5.781230 0.391089 0.054091 -0.056804 -0.000000 0.000000 0.000000 0.000000 0.000000 0.000000 0.000000 
0.786732 16.885911 0.132649 37.452135 80.748990 55.112672 -12.214863 2.952718 -1.803347 0.070147 8.899249 -13.136206 -0.194263 2.400346 42.023038 1.438709 0.031773 24.999318 -0.748000 0.000000 -64.422800 8.631427 0.909164 0.261945 9.486675 -1.942593 -43.336534 1.913251 -1.224280 25.695627 -2.227111 -8.496951 -6.235854 -1.097200 -0.000000 -12.968800 6.332344 -2.336808 2.961382 0.458778 -2.640768 -2.128975 -6.507182 -2.674729 1.340645 9.029002 -3.518589 -4.932799 -3.902717 -0.303941 0.562545 0.000000 0.000000 0.000000 -2.954561 5.699347 2.987605 -40.158265 -15.543520 0.847370 -2.641120 -54.834625 0.019548 -5.946549 0.398181 -0.010329 -0.104914 0.171305 0.000000 0.000000 0.000000 0.000000 0.000000 0.000000 0.000000 16.538358 -2.889645 1.200303 67.327822 -1.702666 -14.206388 4.076669 15.467677 0.013641 7.689126 5.824183 0.393295 0.052538 -0.058058 -0.000000 0.000000 0.000000 0.000000 0.000000 0.000000 0.000000 
0.930961 16.902478 0.217576 36.154836 80.565501 53.797158 -12.207451 2.824847 -1.801892 0.199875 8.758784 -14.360151 -0.090316 2.490254 44.337829 1.568844 1.079033 25.470344 -0.263100 0.000000 -60.720400 8.615314 0.845258 0.236771 9.764909 -1.771227 -42.740045 1.933288 -1.217577 26.046428 -2.258693 -8.404205 -7.226349 -0.897800 0.000000 -12.365000 6.332368 -2.276460 2.963982 0.459896 -2.580882 -2.143089 -6.477754 -2.618149 1.304422 9.200582 -3.269699 -4.829616 -3.886213 -0.303675 0.590582 0.000000 0.000000 0.000000 -2.899082 5.710681 2.964708 -41.160876 -14.694222 1.657089 -2.703823 -54.192084 0.018253 -5.939594 0.489758 -0.015428 -0.108445 0.160893 0.000000 0.000000 0.000000 0.000000 0.000000 0.000000 0.000000 16.566285 -2.599363 1.183274 67.347324 -0.830318 -13.833226 4.053562 15.690084 0.013727 7.688259 5.874329 0.396801 0.050782 -0.059621 -0.000000 0.000000 0.000000 0.000000 0.000000 0.000000 0.000000 
